<svg xmlns="http://www.w3.org/2000/svg" width="933" height="342" viewBox="0 0 933 342" version="1.1">
	<path d="M 625.918 75.229 C 619.416 77.511, 614.440 80.899, 610.805 85.521 C 605.652 92.072, 602.025 104.948, 602.008 116.750 L 602 122 595 122 L 588 122 588 129 L 588 136 595 136 L 602 136 602 179.500 L 602 223 611 223 L 620 223 620 179.500 L 620 136 632 136 L 644 136 644 129 L 644 122 632 122 L 620 122 620 115.710 C 620 102.857, 624.655 92.296, 631.600 89.394 C 635.450 87.785, 644.693 87.553, 648.423 88.971 C 651.248 90.045, 651.190 90.151, 652.876 80.800 C 653.712 76.160, 653.683 76.085, 650.612 74.974 C 648.900 74.355, 644.125 73.640, 640 73.384 C 633.907 73.007, 631.265 73.353, 625.918 75.229 M 228.500 82.017 C 208.053 86.093, 195 100.504, 195 119 C 195 135.467, 205.032 147.543, 225.682 155.933 C 240.639 162.009, 247.638 165.884, 251.783 170.380 C 264.053 183.692, 257.722 203.605, 239.664 208.493 C 228.518 211.510, 212.229 209.239, 199.899 202.948 L 196.284 201.104 194.182 208.302 C 192.539 213.926, 192.344 215.759, 193.290 216.684 C 197.009 220.322, 216.559 225, 228.043 225 C 241.880 225, 256.601 219.969, 265.020 212.363 C 267.198 210.395, 270.447 205.803, 272.240 202.158 C 275.322 195.894, 275.500 194.929, 275.500 184.516 C 275.500 174.475, 275.252 172.995, 272.700 167.797 C 267.682 157.580, 261.033 153.003, 231.871 139.695 C 218.125 133.422, 212.208 125.597, 213.223 115.036 C 213.856 108.442, 217.668 103.055, 224.292 99.393 C 229.051 96.762, 230.362 96.514, 239.500 96.507 C 247.431 96.501, 251.052 97.008, 257 98.957 C 261.125 100.308, 264.908 101.433, 265.407 101.457 C 265.906 101.480, 267.351 98.429, 268.617 94.676 L 270.919 87.852 266.454 85.877 C 257.098 81.738, 239.086 79.906, 228.500 82.017 M 554.763 84.565 C 546.875 88.845, 547.433 101.194, 555.670 104.635 C 561.977 107.271, 569.070 104.348, 571.069 98.290 C 574.407 88.178, 564.097 79.501, 554.763 84.565 M 312.500 95.454 L 304.500 97.658 304.219 109.829 L 303.938 122 295.969 122 L 288 122 288 129 L 288 136 295.930 136 L 303.860 136 304.234 170.250 C 304.656 208.875, 305.006 211.006, 312.087 218.087 C 318.310 224.310, 329.727 226.539, 341.951 223.917 L 347 222.834 346.986 218.167 C 346.961 209.418, 346.767 209.212, 339.104 209.760 C 331.093 210.334, 326.956 208.653, 324.267 203.733 C 322.701 200.867, 322.466 196.835, 322.199 168.250 L 321.897 136 334.949 136 L 348 136 348 129 L 348 122 335 122 L 322 122 322 107.500 C 322 99.525, 321.663 93.056, 321.250 93.126 C 320.837 93.195, 316.900 94.243, 312.500 95.454 M 400.500 120.955 C 387.559 123.768, 376.454 131.136, 369.922 141.242 C 359.462 157.426, 358.246 181.816, 367.011 199.659 C 378.466 222.981, 409.596 231.926, 434.012 218.913 C 450.331 210.215, 459.329 193.579, 459.387 172 C 459.430 156.172, 455.297 144.522, 446.166 134.732 C 437.288 125.213, 427.871 121.103, 413.500 120.478 C 408.550 120.262, 402.700 120.477, 400.500 120.955 M 517.860 121.568 C 511.768 123.444, 503.766 130.711, 500.707 137.147 L 498.301 142.210 497.650 137.465 C 497.293 134.856, 497 130.309, 497 127.360 L 497 122 488.869 122 L 480.738 122 481.358 125.750 C 481.699 127.813, 481.983 150.537, 481.989 176.250 L 482 223 490.937 223 L 499.873 223 500.205 191.250 C 500.522 160.909, 500.638 159.247, 502.824 153.792 C 507.128 143.054, 518.816 135.617, 528.527 137.439 L 532 138.091 532 129.045 L 532 120 527.250 120.070 C 524.638 120.108, 520.412 120.782, 517.860 121.568 M 551 172.500 L 551 223 560 223 L 569 223 569 172.500 L 569 122 560 122 L 551 122 551 172.500 M 650.080 127.215 C 651.224 130.122, 659.305 150.275, 668.039 172 C 689.513 225.419, 687.606 218.509, 683.279 227.223 C 678.726 236.394, 668.803 246.507, 660.412 250.527 C 657.160 252.085, 654.342 253.474, 654.150 253.614 C 653.957 253.753, 654.812 257.281, 656.051 261.453 C 658.625 270.123, 658.074 269.977, 668.814 264.835 C 676.653 261.081, 686.557 251.939, 692.550 242.924 C 700.813 230.495, 705.440 219.684, 729.860 155.750 L 742.750 122 733.028 122 L 723.306 122 709.966 161.916 L 696.625 201.831 691.895 187.666 C 689.293 179.875, 682.888 162.025, 677.662 148 L 668.160 122.500 658.081 122.215 L 648.002 121.930 650.080 127.215 M 401.994 134.876 C 395.003 137.166, 388.072 143.092, 384.653 149.703 C 379.533 159.606, 378.326 176.545, 381.925 188 C 384.430 195.972, 389.986 203.478, 396.249 207.351 C 402.495 211.212, 412.724 212.141, 419.695 209.479 C 435.722 203.358, 444.505 181.490, 439.485 160.200 C 436.939 149.400, 431.862 141.761, 424.272 137.314 C 420.641 135.185, 418.211 134.594, 412.117 134.354 C 407.928 134.189, 403.372 134.424, 401.994 134.876" stroke="none" fill="#fb7275" fill-rule="evenodd"/>
</svg>